# xmcd CD database file
#
# Track frame offsets:
#	150
#	13496
#	25276
#	45333
#	57711
#	71106
#	81856
#	99013
#	116338
#	130826
#	148943
#	165531
#	175378
#	188256
#	199141
#	212613
#	226813
#	238221
#	254723
#	268718
#
# Disc length: 3753 seconds
#
# Revision: 2
# Processed by: cddbd v1.5.2PL0 Copyright (c) Steve Scherf et al.
# Submitted via: CDex 1.70beta2
#
DISCID=210ea714
DTITLE=Rich, Charlie - The Best Of (Re-Recordings)
DYEAR=1999
DGENRE=Country
TTITLE0=The Most Beautiful Girl In The World
TTITLE1=Rollin' With The Flow
TTITLE2=You Don't Know Me
TTITLE3=Behind Closed Doors
TTITLE4=Good Time Charlie's Got The Blues
TTITLE5=Lonely Weekends
TTITLE6=My Elusive Dreams
TTITLE7=Life's Little Ups and Downs
TTITLE8=On My Knees
TTITLE9=I Feel Like Going Home
TTITLE10=Big Boss Man
TTITLE11=Mohair Sam
TTITLE12=I Take It On Home
TTITLE13=There Won't Be Anymore
TTITLE14=Sittin' and Thinkin'
TTITLE15=Mountain Dew
TTITLE16=Pass On By
TTITLE17=Who Will The Next Fool Be?
TTITLE18=Break Up
TTITLE19=Charlie Rich - C C Rider
EXTD=YEAR: 1999
EXTT0=
EXTT1=
EXTT2=
EXTT3=
EXTT4=
EXTT5=
EXTT6=
EXTT7=
EXTT8=
EXTT9=
EXTT10=
EXTT11=
EXTT12=
EXTT13=
EXTT14=
EXTT15=
EXTT16=
EXTT17=
EXTT18=
EXTT19=
PLAYORDER=
